<svg width="215" height="25" viewBox="0 0 215 25" fill="none" xmlns="http://www.w3.org/2000/svg">
<path fill-rule="evenodd" clip-rule="evenodd" d="M1.83437 20.5473C0.822317 20.5473 0.000976562 21.3675 0.000976562 22.3795C0.000976562 23.3927 0.822317 24.2129 1.83437 24.2129C2.84642 24.2129 3.66659 23.3927 3.66659 22.3795C3.66659 21.3675 2.84642 20.5473 1.83437 20.5473ZM7.80722 10.3858H3.34952V3.38106H7.80722C9.73889 3.38106 11.3114 4.95003 11.3114 6.88404C11.3114 8.81571 9.73889 10.3858 7.80722 10.3858ZM13.1646 11.1417C14.096 9.97167 14.6587 8.49396 14.6587 6.88404C14.6587 3.10494 11.5863 0.0325159 7.80722 0.0325159H0.000976562V13.7847H10.1531C12.0847 13.7847 13.656 15.356 13.656 17.2865C13.656 19.2193 12.0847 20.7907 10.1531 20.7907H7.32986V24.138H10.1531C13.931 24.138 17.0046 21.0644 17.0046 17.2865C17.0046 14.592 15.4344 12.2602 13.1646 11.1417ZM154.264 20.8222C149.447 20.8222 145.528 16.9027 145.528 12.0847C145.528 9.99858 146.263 8.08095 147.486 6.5775C149.091 4.60605 151.532 3.3483 154.264 3.3483C157.421 3.3483 160.194 5.03193 161.728 7.54743L164.526 5.71287C162.391 2.28594 158.59 -0.000244141 154.264 -0.000244141C147.601 -0.000244141 142.179 5.42154 142.179 12.0847C142.179 18.7478 147.601 24.1696 154.264 24.1696C158.69 24.1696 162.567 21.777 164.673 18.2178L161.868 16.3786C160.367 19.0298 157.522 20.8222 154.264 20.8222ZM202.727 20.8211L199.034 20.7825V3.37638L202.719 3.3483C207.536 3.3483 211.455 7.26663 211.455 12.0835C211.455 16.8992 207.54 20.8164 202.727 20.8211ZM202.706 -0.000244141L195.686 0.0535759V24.0959L202.701 24.1696H202.719C209.383 24.1696 214.802 18.7478 214.802 12.0835C214.802 5.42037 209.383 -0.000244141 202.706 -0.000244141ZM98.7326 24.1638H102.082V13.7508H110.679V10.4034H102.082V3.38925H114.526V0.0418759H98.7326V24.1638ZM172.209 24.1135H187.172V20.7661H175.556V13.7508H184.154V10.4034H175.556V3.38925H187.172V0.0418759H172.209V24.1135ZM90.5742 20.7661H78.9584V13.7508H87.5568V10.4034H78.9584V3.38925H90.5742V0.0418759H75.6111V24.1135H90.5742V20.7661ZM137.651 22.3982C137.651 21.3862 136.831 20.5648 135.819 20.5648C134.806 20.5648 133.986 21.3862 133.986 22.3982C133.986 23.4103 134.806 24.2305 135.819 24.2305C136.831 24.2305 137.651 23.4103 137.651 22.3982ZM127.34 4.65519L130.748 13.7847H123.931L127.34 4.65519ZM135.581 17.1531L129.194 0.0500659H125.486L116.458 24.2316H120.031L122.681 17.1321L135.581 17.1531ZM60.4876 10.3905H55.0249V3.38574H60.4876C62.4193 3.38574 63.9906 4.95588 63.9906 6.88755C63.9906 8.82039 62.4193 10.3905 60.4876 10.3905ZM67.3392 6.88755C67.3392 3.11079 64.2656 0.0371959 60.4876 0.0371959H55.0249V0.0313459H51.6764V24.138H55.0249V13.7391H59.5739L64.6844 24.2024H68.4109L63.0534 13.236C65.5631 12.2181 67.3392 9.75756 67.3392 6.88755ZM29.8524 13.766L33.2606 4.63647L36.6688 13.766H29.8524ZM31.4061 0.0325159L22.3796 24.2129H25.9527L28.6028 17.1133H37.9207L40.5684 24.2129H44.1427L35.115 0.0325159H31.4061Z" fill="#2E2828"/>
</svg>
