<?xml version="1.0" standalone="no"?>
<!DOCTYPE svg PUBLIC "-//W3C//DTD SVG 20010904//EN"
 "http://www.w3.org/TR/2001/REC-SVG-20010904/DTD/svg10.dtd">
<svg version="1.0" xmlns="http://www.w3.org/2000/svg"
 width="500.000000pt" height="500.000000pt" viewBox="0 0 500.000000 500.000000"
 preserveAspectRatio="xMidYMid meet">
<metadata>
Created by potrace 1.11, written by Peter Selinger 2001-2013
</metadata>
<g transform="translate(0.000000,500.000000) scale(0.100000,-0.100000)"
fill="#000000" stroke="none">
<path d="M1350 3200 l0 -950 725 0 c488 0 741 -4 777 -11 189 -39 345 -204
378 -398 34 -203 -76 -414 -264 -506 -98 -48 -147 -55 -392 -55 l-214 0 0
-231 0 -231 278 4 c248 4 285 7 357 27 474 133 773 598 690 1072 -35 200 -110
349 -253 500 -58 62 -228 189 -252 189 -5 0 12 34 39 75 226 345 204 790 -55
1113 -83 104 -191 190 -319 252 -197 97 -172 94 -877 98 l-618 3 0 -951z
m1234 462 c199 -74 326 -252 326 -456 -1 -86 -13 -141 -46 -213 -35 -74 -130
-173 -202 -211 -109 -58 -142 -62 -514 -62 l-338 0 0 486 0 486 358 -4 c338
-4 360 -5 416 -26z"/>
<path d="M1551 1309 c-179 -35 -260 -254 -148 -401 113 -147 343 -126 424 40
64 131 12 286 -114 340 -62 26 -108 32 -162 21z"/>
</g>
</svg>
